<svg height='300px' width='300px'  fill="#000000" xmlns="http://www.w3.org/2000/svg" viewBox="0 0 100 100" x="0px" y="0px"><title>people_bos</title><path d="M49.14,48.57c7.61,0,12.69-4.7,14.24-10.56,2.67-10.1,2.09-15,1.77-16.78C64.56,18,63,13,60.14,13H58a3.55,3.55,0,0,0-2-3c-2.45-1.22-4-1-6.86-1-7.62,0-14.75,5.3-16,12.23C32.8,23,32.22,27.91,34.89,38,36.44,43.87,41.52,48.57,49.14,48.57Z"></path><polygon points="46.89 57.23 50.95 57.24 52.78 51.92 44.65 51.92 46.89 57.23"></polygon><path d="M81,76c-1.13-8.59-3.41-17.55-7.94-21.63-2.72-2.45-9.18-4-12.85-4,0,4.25-2.26,16.36-4.13,25.67H52.61L51.22,59.67H46.61L45.2,76H41.78c-1.81-9.24-4-21.25-4-25.67-3.7.08-10.19,1.62-12.92,4.1C17.9,60.78,16.31,78.84,16,89H88V76Zm4,10H44V79H85Z"></path></svg>